#!OML:ASF H:\Terrain\Patient Classification 1\Walking\steve\steve.ASF
:FULLY-SPECIFIED
:DEGREES
77
root 7.46893 15.5509 -23.9452 5.73584 1.58781 4.7608
lowerback 0.819265 -0.152044 -6.49536
upperback -2.95531 -0.379316 -0.144724
thorax -3.48245 -0.00875289 3.50583
lowerneck -8.28562 -0.703932 -2.41551
upperneck 13.7124 -1.03613 2.88396
head 5.52293 -0.42556 1.22608
rclavicle 4.42141e-015 2.14687e-014
rhumerus -71.1795 -29.1864 -43.9478
rradius 15.1933
rwrist 24.9273
rhand -15.1078 -40.7712
rfingers 7.12502
rthumb 11.0607 -70.4597
lclavicle 4.42141e-015 2.14687e-014
lhumerus -9.98293 -9.75673 83.7973
lradius 41.6556
lwrist 25.3075
lhand -25.3492 -14.3973
lfingers 7.12502
lthumb 1.17427 15.5792
rfemur -42.2572 -0.192702 18.4982
rtibia 23.5289
rfoot -15.213 -0.786416
rtoes -8.5279
lfemur 8.25789 3.2175 -27.23
ltibia 10.433
lfoot -11.9282 -12.3777
ltoes -1.77575
78
root 7.46062 15.517 -23.7217 5.81772 2.01871 5.07304
lowerback 0.809202 -0.294434 -6.72681
upperback -2.95973 -0.576466 -0.200972
thorax -3.46004 -0.101969 3.5843
lowerneck -8.12692 -0.815312 -2.54235
upperneck 13.4468 -1.17661 2.94557
head 5.41807 -0.498083 1.25564
rclavicle 1.32434e-014 -9.54166e-015
rhumerus -71.0878 -26.4723 -47.8697
rradius 17.0332
rwrist 19.3556
rhand -14.7696 -41.4418
rfingers 7.12502
rthumb 11.387 -71.1126
lclavicle 1.32434e-014 -9.54166e-015
lhumerus -8.90798 -10.0143 83.458
lradius 42.4033
lwrist 25.455
lhand -25.5358 -14.5292
lfingers 7.12502
lthumb 0.994083 15.4482
rfemur -42.7828 -1.34999 18.6755
rtibia 22.5568
rfoot -14.7176 1.10866
rtoes -10.1884
lfemur 10.2765 2.52187 -27.4787
ltibia 8.06911
lfoot -10.9334 -11.9828
ltoes -0.450148
79
root 7.45423 15.4849 -23.5045 6.02961 2.36426 5.36519
lowerback 0.581601 -0.395583 -6.94396
upperback -2.89095 -0.695864 -0.217321
thorax -3.24543 -0.164687 3.69057
lowerneck -8.0307 -0.920955 -3.11634
upperneck 13.0909 -1.30098 3.40381
head 5.30075 -0.557468 1.4838
rclavicle -3.00429e-015 8.74653e-015
rhumerus -72.6657 -26.2874 -46.9242
rradius 18.1253
rwrist 19.143
rhand -15.0098 -41.249
rfingers 7.12502
rthumb 11.1553 -70.9324
lclavicle -3.00429e-015 8.74653e-015
lhumerus -7.79455 -10.3081 83.1686
lradius 43.3054
lwrist 25.5722
lhand -25.8606 -14.7082
lfingers 7.12502
lthumb 0.680412 15.2705
rfemur -43.4076 -1.68155 18.3944
rtibia 21.8579
rfoot -14.3125 2.19474
rtoes -8.64983
lfemur 12.8698 1.88632 -27.6881
ltibia 4.16732
lfoot -8.37678 -11.5772
ltoes 5.76612
80
root 7.4493 15.4674 -23.2862 6.04595 2.59427 5.58224
lowerback 0.643727 -0.476374 -7.07096
upperback -2.85578 -0.809544 -0.190277
thorax -3.2298 -0.219004 3.79395
lowerneck -8.15166 -0.896486 -3.20853
upperneck 13.1125 -1.24067 3.32061
head 5.3262 -0.537042 1.47699
rclavicle -1.49089e-016 -1.43125e-014
rhumerus -74.4312 -26.7147 -44.2491
rradius 18.1157
rwrist 20.9465
rhand -15.3258 -40.9804
rfingers 7.12502
rthumb 10.8505 -70.6801
lclavicle -1.49089e-016 -1.43125e-014
lhumerus -7.05738 -10.3185 82.9457
lradius 44.4231
lwrist 25.5565
lhand -26.0386 -14.6051
lfingers 7.12502
lthumb 0.508512 15.374
rfemur -43.7583 -1.49822 17.9543
rtibia 21.505
rfoot -14.1499 2.41306
rtoes -9.11373
lfemur 15.7927 1.40291 -27.873
ltibia -3.81667e-014
lfoot -6.21298 -10.6193
ltoes 7.55204
81
root 7.44627 15.4309 -23.0618 5.82331 2.81134 5.75154
lowerback 1.03938 -0.514924 -7.14978
upperback -2.83217 -0.892977 -0.108456
thorax -3.41778 -0.251182 3.93111
lowerneck -8.26119 -0.824114 -2.89221
upperneck 13.1319 -1.10896 2.7915
head 5.34246 -0.492321 1.26851
rclavicle 6.8208e-015 1.86858e-014
rhumerus -75.7475 -26.8341 -41.9345
rradius 17.6573
rwrist 22.2781
rhand -15.3335 -41.1001
rfingers 7.12502
rthumb 10.8431 -70.8002
lclavicle 6.8208e-015 1.86858e-014
lhumerus -6.73079 -10.2512 82.8828
lradius 45.7104
lwrist 25.4671
lhand -26.0142 -13.9129
lfingers 7.12502
lthumb 0.532034 16.0661
rfemur -43.8718 -2.45949 18.3761
rtibia 21.4446
rfoot -13.306 4.0055
rtoes -11.46
lfemur 16.8992 0.97765 -28.0321
ltibia 0
lfoot -6.05107 -10.5101
ltoes 7.49448
82
root 7.44244 15.3862 -22.834 5.61943 3.12565 5.90941
lowerback 1.36854 -0.579037 -7.18526
upperback -2.74657 -1.00293 -0.0810483
thorax -3.5008 -0.303795 3.98789
lowerneck -8.6596 -0.873717 -2.43944
upperneck 13.3739 -1.14338 2.15288
head 5.48121 -0.528267 0.991358
rclavicle 7.04754e-015 8.74653e-015
rhumerus -77.1399 -27.358 -38.9764
rradius 16.7625
rwrist 24.3377
rhand -15.5273 -40.9334
rfingers 7.12502
rthumb 10.6562 -70.6432
lclavicle 7.04754e-015 8.74653e-015
lhumerus -6.24299 -10.198 82.7174
lradius 46.718
lwrist 25.3744
lhand -25.9007 -14.0645
lfingers 7.12502
lthumb 0.641675 15.9143
rfemur -43.8643 -2.90523 18.4348
rtibia 21.6172
rfoot -12.745 5.13153
rtoes -12.4488
lfemur 18.0609 0.45266 -28.1598
ltibia 5.08889e-014
lfoot -5.69489 -10.2686
ltoes 8.39414
83
root 7.43936 15.3568 -22.6025 5.4496 3.47331 6.01705
lowerback 1.63735 -0.746326 -7.01709
upperback -2.66036 -1.24233 -0.170683
thorax -3.5376 -0.429868 3.8137
lowerneck -8.95178 -0.89681 -2.04113
upperneck 13.5459 -1.17382 1.7711
head 5.58117 -0.548619 0.803353
rclavicle 1.98195e-014 -5.1684e-015
rhumerus -79.011 -28.6042 -34.2528
rradius 15.2673
rwrist 27.6606
rhand -15.4322 -40.7667
rfingers 7.12502
rthumb 10.7479 -70.4717
lclavicle 1.98195e-014 -5.1684e-015
lhumerus -5.74755 -9.99465 82.2515
lradius 47.5379
lwrist 25.4374
lhand -26.0225 -14.7547
lfingers 7.12502
lthumb 0.524006 15.2244
rfemur -43.6074 -2.00572 17.5806
rtibia 22.0395
rfoot -13.1992 4.95948
rtoes -10.8765
lfemur 19.1641 -0.117193 -28.1901
ltibia 7.95139e-014
lfoot -5.32091 -10.0106
ltoes 7.27409
84
root 7.43668 15.3211 -22.3632 5.32766 3.56597 6.05037
lowerback 1.76007 -0.835149 -6.80765
upperback -2.64126 -1.36325 -0.182225
thorax -3.57629 -0.495136 3.69157
lowerneck -8.47199 -0.827078 -2.26722
upperneck 13.0067 -1.08672 2.03069
head 5.33201 -0.501776 0.928821
rclavicle -1.12407e-014 1.86858e-014
rhumerus -81.1546 -29.4947 -29.6194
rradius 14.5406
rwrist 30.8347
rhand -15.2024 -40.9745
rfingers 7.12502
rthumb 10.9696 -70.6679
lclavicle -1.12407e-014 1.86858e-014
lhumerus -5.53067 -9.4728 82.0458
lradius 48.236
lwrist 25.3744
lhand -25.933 -15.4029
lfingers 7.12502
lthumb 0.610487 14.576
rfemur -43.4876 -1.45916 17.2436
rtibia 22.9306
rfoot -13.8188 4.79347
rtoes -12.1493
lfemur 20.1985 -0.444205 -28.1478
ltibia 3.18055e-014
lfoot -4.64207 -9.9237
ltoes 6.23833
85
root 7.43172 15.284 -22.1116 5.18141 3.41818 6.02918
lowerback 1.63199 -0.793984 -6.73212
upperback -2.50632 -1.28566 -0.04323
thorax -3.36973 -0.467007 3.78648
lowerneck -7.4642 -0.709862 -3.3741
upperneck 11.7147 -0.937405 3.16457
head 4.76774 -0.41273 1.4718
rclavicle 1.06163e-014 3.97569e-015
rhumerus -81.983 -29.0876 -28.7881
rradius 14.9242
rwrist 31.546
rhand -15.4995 -40.9956
rfingers 7.12502
rthumb 10.6829 -70.704
lclavicle 1.06163e-014 3.97569e-015
lhumerus -5.30716 -8.99145 82.1273
lradius 48.9029
lwrist 25.3642
lhand -25.9273 -15.7758
lfingers 7.12502
lthumb 0.615993 14.203
rfemur -43.3507 -1.01594 17.2053
rtibia 24.0332
rfoot -13.8561 4.69508
rtoes -12.7437
lfemur 21.2796 -0.521599 -28.1
ltibia 9.54166e-015
lfoot -3.64286 -9.68392
ltoes 5.86174
86
root 7.42779 15.286 -21.8607 4.93054 3.37316 5.87155
lowerback 1.71126 -0.768346 -6.42744
upperback -2.3776 -1.23772 0.116161
thorax -3.28675 -0.454689 3.77939
lowerneck -8.94522 -0.807955 -2.48728
upperneck 13.0396 -0.964039 1.64291
head 5.4198 -0.477143 0.851315
rclavicle 7.95139e-016 -9.54166e-015
rhumerus -83.303 -29.1692 -26.2744
rradius 14.7695
rwrist 33.8355
rhand -15.5898 -40.295
rfingers 7.12502
rthumb 10.5958 -70.0078
lclavicle 7.95139e-016 -9.54166e-015
lhumerus -5.38765 -8.96605 82.0919
lradius 49.9674
lwrist 25.8824
lhand -26.4964 -15.6241
lfingers 7.12502
lthumb 0.0662597 14.3556
rfemur -42.9294 0.605549 16.2247
rtibia 25.3618
rfoot -13.3818 4.77325
rtoes -1.75764
lfemur 22.3668 -0.672959 -27.9208
ltibia 2.22639e-014
lfoot -2.57922 -9.22161
ltoes 4.71232
87
root 7.42828 15.2523 -21.6169 4.88825 3.25861 5.6514
lowerback 1.81788 -0.741682 -5.94474
upperback -2.46168 -1.19229 0.244992
thorax -3.44371 -0.435689 3.6432
lowerneck -8.97734 -0.779662 -2.74665
upperneck 13.1134 -0.883344 1.61477
head 5.44782 -0.452527 0.890968
rclavicle -1.13059e-014 -2.26615e-014
rhumerus -85.2104 -29.6241 -22.0328
rradius 14.1079
rwrist 37.2499
rhand -15.6009 -39.6376
rfingers 7.12502
rthumb 10.5852 -69.351
lclavicle -1.13059e-014 -2.26615e-014
lhumerus -5.85305 -8.86015 82.0784
lradius 51.1611
lwrist 26.5679
lhand -26.9123 -15.4054
lfingers 7.12502
lthumb -0.335365 14.574
rfemur -42.9658 0.343316 16.9428
rtibia 26.7234
rfoot -11.3675 4.11102
rtoes -2.17758
lfemur 23.277 -0.78067 -27.6872
ltibia -8.26944e-014
lfoot -1.85038 -8.86041
ltoes 1.35427
88
root 7.42896 15.2432 -21.3662 5.07063 2.93079 5.3948
lowerback 1.5133 -0.650971 -5.43191
upperback -2.57489 -1.03242 0.414033
thorax -3.40895 -0.365762 3.51957
lowerneck -7.6357 -0.665205 -4.04791
upperneck 11.7895 -0.744892 2.82681
head 4.81539 -0.367604 1.48982
rclavicle -1.3303e-014 9.54166e-015
rhumerus -85.441 -29.2157 -21.8023
rradius 14.1467
rwrist 37.0151
rhand -15.9609 -39.878
rfingers 7.12502
rthumb 10.2378 -69.6089
lclavicle -1.3303e-014 9.54166e-015
lhumerus -6.40971 -8.76789 82.2036
lradius 52.2225
lwrist 27.3674
lhand -27.4035 -15.3601
lfingers 7.12502
lthumb -0.809794 14.6181
rfemur -43.2337 0.342803 17.5649
rtibia 28.0718
rfoot -8.86004 2.40036
rtoes -2.07642
lfemur 23.9519 -0.711333 -27.4116
ltibia 3.18055e-014
lfoot -0.903123 -8.5491
ltoes -4.7498
